<?xml version="1.0" encoding="UTF-8" standalone="no"?>
<!DOCTYPE svg PUBLIC "-//W3C//DTD SVG 1.1//EN" "http://www.w3.org/Graphics/SVG/1.1/DTD/svg11.dtd">
<svg width="100%" height="100%" viewBox="0 0 115 115" version="1.1" xmlns="http://www.w3.org/2000/svg" xmlns:xlink="http://www.w3.org/1999/xlink" xml:space="preserve" xmlns:serif="http://www.serif.com/" style="fill-rule:evenodd;clip-rule:evenodd;stroke-linejoin:round;stroke-miterlimit:2;">
    <g transform="matrix(1,0,0,1,-902.5,-1620)">
        <g id="film-logo" serif:id="film logo">
            <g transform="matrix(1,0,0,1,57.5,43)">
                <circle cx="902.5" cy="1634.5" r="57.5" style="fill:#0a0706;"/>
            </g>
            <g transform="matrix(1,0,0,1,78,-20)">
                <path d="M890,1648L890,1656C890,1658.208 888.208,1660 886,1660L878,1660C875.792,1660 874,1658.208 874,1656L874,1648C874,1645.792 875.792,1644 878,1644L886,1644C888.208,1644 890,1645.792 890,1648Z" style="fill:#f2ebe5;"/>
            </g>
            <g transform="matrix(1,0,0,1,78,71)">
                <path d="M890,1648L890,1656C890,1658.208 888.208,1660 886,1660L878,1660C875.792,1660 874,1658.208 874,1656L874,1648C874,1645.792 875.792,1644 878,1644L886,1644C888.208,1644 890,1645.792 890,1648Z" style="fill:#f2ebe5;"/>
            </g>
            <g transform="matrix(1,0,0,1,32.5,25.5)">
                <path d="M890,1648L890,1656C890,1658.208 888.208,1660 886,1660L878,1660C875.792,1660 874,1658.208 874,1656L874,1648C874,1645.792 875.792,1644 878,1644L886,1644C888.208,1644 890,1645.792 890,1648Z" style="fill:#f2ebe5;"/>
            </g>
            <g transform="matrix(0.707107,0.707107,-0.707107,0.707107,1473.628291,-147.481942)">
                <path d="M890,1648L890,1656C890,1658.208 888.208,1660 886,1660L878,1660C875.792,1660 874,1658.208 874,1656L874,1648C874,1645.792 875.792,1644 878,1644L886,1644C888.208,1644 890,1645.792 890,1648Z" style="fill:#f2ebe5;"/>
            </g>
            <g transform="matrix(0.707107,-0.707107,0.707107,0.707107,-863.981942,1165.201137)">
                <path d="M890,1648L890,1656C890,1658.208 888.208,1660 886,1660L878,1660C875.792,1660 874,1658.208 874,1656L874,1648C874,1645.792 875.792,1644 878,1644L886,1644C888.208,1644 890,1645.792 890,1648Z" style="fill:#f2ebe5;"/>
            </g>
            <g transform="matrix(1,0,0,1,123.5,25.5)">
                <path d="M890,1648L890,1656C890,1658.208 888.208,1660 886,1660L878,1660C875.792,1660 874,1658.208 874,1656L874,1648C874,1645.792 875.792,1644 878,1644L886,1644C888.208,1644 890,1645.792 890,1648Z" style="fill:#f2ebe5;"/>
            </g>
            <g transform="matrix(0.707107,0.707107,-0.707107,0.707107,1537.975009,-83.135225)">
                <path d="M890,1648L890,1656C890,1658.208 888.208,1660 886,1660L878,1660C875.792,1660 874,1658.208 874,1656L874,1648C874,1645.792 875.792,1644 878,1644L886,1644C888.208,1644 890,1645.792 890,1648Z" style="fill:#f2ebe5;"/>
            </g>
            <g transform="matrix(0.707107,-0.707107,0.707107,0.707107,-799.635225,1100.85442)">
                <path d="M890,1648L890,1656C890,1658.208 888.208,1660 886,1660L878,1660C875.792,1660 874,1658.208 874,1656L874,1648C874,1645.792 875.792,1644 878,1644L886,1644C888.208,1644 890,1645.792 890,1648Z" style="fill:#f2ebe5;"/>
            </g>
        </g>
    </g>
</svg>
